<!-- SVG background mẫu cho game -->
<svg width="1920" height="120" xmlns="http://www.w3.org/2000/svg">
  <!-- Sky gradient -->
  <defs>
    <linearGradient id="skyGradient" x1="0%" y1="0%" x2="0%" y2="100%">
      <stop offset="0%" style="stop-color:#87CEEB;stop-opacity:1" />
      <stop offset="100%" style="stop-color:#E0F6FF;stop-opacity:1" />
    </linearGradient>
  </defs>
  
  <!-- Background -->
  <rect width="100%" height="100%" fill="url(#skyGradient)"/>
  
  <!-- Ground -->
  <rect x="0" y="90" width="100%" height="30" fill="#90EE90"/>
  
  <!-- Simple clouds -->
  <ellipse cx="200" cy="30" rx="40" ry="15" fill="white" opacity="0.8"/>
  <ellipse cx="600" cy="25" rx="50" ry="20" fill="white" opacity="0.7"/>
  <ellipse cx="1000" cy="35" rx="35" ry="12" fill="white" opacity="0.9"/>
  <ellipse cx="1400" cy="20" rx="45" ry="18" fill="white" opacity="0.6"/>
  
  <!-- Simple grass texture -->
  <path d="M0,90 Q50,85 100,90 T200,90 T300,90 T400,90 T500,90 T600,90 T700,90 T800,90 T900,90 T1000,90 T1100,90 T1200,90 T1300,90 T1400,90 T1500,90 T1600,90 T1700,90 T1800,90 T1900,90" 
        stroke="#32CD32" stroke-width="2" fill="none"/>
</svg>
