<svg width="48" height="48" viewBox="0 0 48 48" fill="none" xmlns="http://www.w3.org/2000/svg">
<path d="M42 24C42 22.8065 41.5259 21.6619 40.682 20.818C39.8381 19.9741 38.6935 19.5 37.5 19.5H30C30 21.0913 29.3679 22.6174 28.2426 23.7426C27.1174 24.8679 25.5913 25.5 24 25.5C22.4087 25.5 20.8826 24.8679 19.7574 23.7426C18.6321 22.6174 18 21.0913 18 19.5H10.5C9.30653 19.5 8.16193 19.9741 7.31802 20.818C6.47411 21.6619 6 22.8065 6 24M42 24V36C42 37.1935 41.5259 38.3381 40.682 39.182C39.8381 40.0259 38.6935 40.5 37.5 40.5H10.5C9.30653 40.5 8.16193 40.0259 7.31802 39.182C6.47411 38.3381 6 37.1935 6 36V24M42 24V18M6 24L6 18M42 18C42 16.8065 41.5259 15.6619 40.682 14.818C39.8381 13.9741 38.6935 13.5 37.5 13.5H10.5C9.30653 13.5 8.16193 13.9741 7.31802 14.818C6.47411 15.6619 6 16.8065 6 18M42 18V12C42 10.8065 41.5259 9.66193 40.682 8.81802C39.8381 7.97411 38.6935 7.5 37.5 7.5L10.5 7.5C9.30653 7.5 8.16193 7.97411 7.31802 8.81802C6.47411 9.66193 6 10.8065 6 12V18" stroke="#FF4D4F" stroke-width="1.5" stroke-linecap="round" stroke-linejoin="round"/>
</svg>
