<svg width="48" height="48" viewBox="0 0 48 48" fill="none" xmlns="http://www.w3.org/2000/svg">
<path d="M7.5 9.75C7.5 8.508 8.508 7.5 9.75 7.5H18.75C19.992 7.5 21 8.508 21 9.75V18.75C21 19.992 19.992 21 18.75 21H9.75C9.15326 21 8.58097 20.7629 8.15901 20.341C7.73705 19.919 7.5 19.3467 7.5 18.75V9.75ZM7.5 29.25C7.5 28.008 8.508 27 9.75 27H18.75C19.992 27 21 28.008 21 29.25V38.25C21 39.492 19.992 40.5 18.75 40.5H9.75C9.15326 40.5 8.58097 40.2629 8.15901 39.841C7.73705 39.419 7.5 38.8467 7.5 38.25V29.25ZM27 9.75C27 8.508 28.008 7.5 29.25 7.5H38.25C39.492 7.5 40.5 8.508 40.5 9.75V18.75C40.5 19.992 39.492 21 38.25 21H29.25C28.6533 21 28.081 20.7629 27.659 20.341C27.2371 19.919 27 19.3467 27 18.75V9.75Z" stroke="#A7A7A7" stroke-width="1.5" stroke-linecap="round" stroke-linejoin="round"/>
<path d="M13.5 13.5H15V15H13.5V13.5ZM13.5 33H15V34.5H13.5V33ZM33 13.5H34.5V15H33V13.5ZM27 27H28.5V28.5H27V27ZM27 39H28.5V40.5H27V39ZM39 27H40.5V28.5H39V27ZM39 39H40.5V40.5H39V39ZM33 33H34.5V34.5H33V33Z" stroke="#A7A7A7" stroke-width="1.5" stroke-linecap="round" stroke-linejoin="round"/>
</svg>
